<svg version="1.1"
	 xmlns:svg="http://www.w3.org/2000/svg"
	 xmlns="http://www.w3.org/2000/svg" xmlns:xlink="http://www.w3.org/1999/xlink" x="0px" y="0px" viewBox="0 0 345 344.6"
	 style="enable-background:new 0 0 345 344.6;" xml:space="preserve">
<path d="M319.3,343.2c-1.6-0.7-21-19.4-43-41.5c-22-22.1-40.3-40.1-40.6-40.1c-0.3,0-4.4,2.5-9,5.6
	c-15.4,10.2-32.8,17.5-51.7,21.7c-14.4,3.2-44.3,3.1-59.2-0.1c-28.9-6.3-52.2-19.2-73.6-40.6c-17.7-17.8-27.9-34.4-35.5-57.5
	c-5.7-17.3-7.3-30-6.7-50.5c1-29.4,8.1-51.7,24.5-76.5c7.3-11,24.8-29.1,35.9-37C76.2,15.5,97.4,6.2,116.9,2
	c12-2.6,44.8-2.7,56.9-0.1c29.9,6.4,53.5,19.1,75.1,40.7c21.4,21.3,34.6,45.9,40.6,75.8c2.7,13.2,2.4,43.3-0.5,56.5
	c-4.3,19.3-11.4,36.4-21.6,51.6c-3.1,4.6-5.6,8.6-5.6,9s18.4,19.1,40.9,41.7c44.4,44.5,43.1,42.8,41.8,52.6
	C343.1,340.6,329.5,347.8,319.3,343.2L319.3,343.2z M167.2,253c62-11.7,101.5-76.2,84.1-137.2c-11.9-41.6-46.6-72.3-89.2-78.7
	c-12.3-1.9-20.2-1.9-32.6,0C105.7,40.7,85.3,51,68.2,68c-52.8,52.6-38.4,142,28.1,175.1C119.4,254.6,141.9,257.8,167.2,253
	L167.2,253z"/>
</svg>
