<svg width="26" height="26" viewBox="0 0 26 26" fill="none" xmlns="http://www.w3.org/2000/svg">
<path d="M13.2667 15.8232C13.7527 15.8232 14.1467 16.2172 14.1467 16.7032C14.1467 17.1892 13.7527 17.5832 13.2667 17.5832H8.07169C7.53139 17.5832 7.09338 17.1452 7.09338 16.6049C7.09338 16.3357 7.20428 16.0784 7.39996 15.8936L10.6934 12.7832C11.0756 12.4187 11.3334 12.1076 11.4667 11.8498C11.6001 11.5832 11.6667 11.321 11.6667 11.0632C11.6667 10.6898 11.5378 10.4054 11.2801 10.2098C11.0312 10.0054 10.6623 9.90318 10.1734 9.90318C9.7645 9.90318 9.39561 9.98318 9.06672 10.1432C9.00961 10.1694 8.95412 10.1981 8.90023 10.2291C8.46168 10.4819 7.90554 10.6211 7.47999 10.347C7.03343 10.0594 6.90457 9.44796 7.31035 9.10521C7.563 8.8918 7.85068 8.7089 8.17338 8.55651C8.81338 8.2454 9.54672 8.08984 10.3734 8.08984C11.0667 8.08984 11.6712 8.2054 12.1867 8.43651C12.7112 8.65873 13.1156 8.97873 13.4001 9.39651C13.6934 9.8054 13.8401 10.2898 13.8401 10.8498C13.8401 11.3565 13.7334 11.8321 13.5201 12.2765C13.3067 12.721 12.8934 13.2276 12.2801 13.7965L11.9628 14.096C11.3049 14.7172 11.7444 15.8232 12.6493 15.8232H13.2667Z" fill="white"/>
<path d="M17.638 8.24984C18.1903 8.24984 18.638 8.69756 18.638 9.24984V16.5832C18.638 17.1355 18.1903 17.5832 17.638 17.5832H17.478C16.9257 17.5832 16.478 17.1355 16.478 16.5832V10.9165C16.478 10.401 16.0601 9.98318 15.5446 9.98318H15.478C14.9993 9.98318 14.6113 9.59516 14.6113 9.11651C14.6113 8.63786 14.9993 8.24984 15.478 8.24984H17.638Z" fill="white"/>
<path d="M24.6958 9.56089C23.9389 9.56089 23.4046 10.3074 23.5415 11.0518C23.659 11.6908 23.7182 12.3418 23.7182 13C23.7182 18.9099 18.9101 23.718 13 23.718C7.09001 23.718 2.28177 18.9099 2.28177 13C2.28177 7.08995 7.08993 2.28199 13 2.28199C13.6582 2.28199 14.3091 2.34114 14.948 2.45859C15.6925 2.59543 16.4391 2.06116 16.4391 1.30427C16.4391 0.806304 16.107 0.364889 15.6192 0.264809C14.7619 0.0889211 13.8862 0 13 0C5.83184 0 0 5.83179 0 13C0 20.1682 5.83184 26 13 26C20.1682 26 26 20.1682 26 13C26 12.1139 25.9111 11.2382 25.7353 10.3808C25.6352 9.89299 25.1937 9.56089 24.6958 9.56089Z" fill="white"/>
<path d="M23.3951 3.48634C22.9037 3.48634 22.5053 3.08794 22.5053 2.5965V1.88349C22.5053 1.39205 22.1005 0.993652 21.6091 0.993652C21.1176 0.993652 20.7128 1.39205 20.7128 1.88349V2.5965C20.7128 3.08794 20.3144 3.48634 19.823 3.48634H19.1249C18.6335 3.48634 18.2351 3.89104 18.2351 4.38248C18.2351 4.87393 18.6335 5.27863 19.1249 5.27863H19.823C20.3144 5.27863 20.7128 5.67702 20.7128 6.16847V6.88139C20.7128 7.37284 21.1176 7.77123 21.6091 7.77123C22.1005 7.77123 22.5053 7.37284 22.5053 6.88139V6.16847C22.5053 5.67702 22.9037 5.27863 23.3951 5.27863H24.108C24.5995 5.27863 24.9979 4.87393 24.9979 4.38248C24.9979 3.89104 24.5995 3.48634 24.108 3.48634H23.3951Z" fill="white"/>
</svg>
