<svg width="173" height="19" viewBox="0 0 173 19" fill="none" xmlns="http://www.w3.org/2000/svg">
<path fill-rule="evenodd" clip-rule="evenodd" d="M4.38623 10.7906V15.6506H7.67576C8.92897 15.7407 10.0254 14.7505 10.1038 13.3105C10.1038 13.3105 10.1038 13.3105 10.1038 13.2206C10.1038 11.6904 9.00716 10.7005 7.3624 10.7005L4.38623 10.7906ZM4.38623 3.68047V8.0005H7.44079C8.53723 8.09058 9.55548 7.19049 9.63387 5.93033C9.63387 5.84048 9.63387 5.75041 9.63387 5.75041C9.63387 4.58032 8.61562 3.68047 7.20582 3.68047H4.38623ZM7.24792e-05 0.800293H5.95261C8.61562 0.800293 9.55548 0.890371 10.3388 1.25022C11.8267 2.06046 12.6884 3.68047 12.6884 5.57048C12.6884 7.37042 12.2185 8.2705 10.6519 9.17058C12.2967 9.80043 13.3933 11.6006 13.2367 13.5805C13.2367 16.5507 11.2002 18.5306 8.22387 18.5306H7.24792e-05V15.6506H1.1749V3.68047H7.24792e-05V0.800293Z" fill="#FFFFFE"/>
<path fill-rule="evenodd" clip-rule="evenodd" d="M23.2653 10.1752C23.2653 8.64524 22.1689 7.47516 20.9157 7.47516H20.8375C19.5059 7.47516 18.4095 8.64524 18.1745 10.0851L23.2653 10.1752ZM26.2417 14.1351C25.6934 17.1054 23.5787 18.9053 20.7591 18.9053C17.4696 18.9053 15.0415 15.9353 15.0415 11.7952C15.0415 7.65508 17.4696 4.68506 20.7591 4.68506C22.5604 4.68506 24.2836 5.67499 25.3019 7.47516C26.0851 9.00509 26.5551 10.7152 26.4767 12.5151H18.0179C18.3311 16.0254 20.2892 16.2053 20.8375 16.2053C21.9339 16.2954 22.9522 15.3953 23.2655 14.2252L26.2417 14.1351Z" fill="#FFFFFE"/>
<path fill-rule="evenodd" clip-rule="evenodd" d="M36.0292 9.7295H41.4334V18.5495H39.7102V15.7596C39.3971 16.3895 39.0053 16.9295 38.5354 17.4695C37.5173 18.4596 36.2641 18.9996 35.0109 18.9996C31.408 18.9996 28.5884 14.9496 28.5884 9.7295C28.5884 4.50939 31.408 0.36928 34.9327 0.36928C36.8906 0.279202 38.6138 1.53937 39.5536 3.42938V0.639282H41.1984V6.30932H39.4755C39.3187 5.49932 39.0053 4.77939 38.6138 4.14931C37.8305 2.97922 36.5775 2.25929 35.3243 2.16921C33.4445 2.16921 30.6249 4.05923 30.6249 9.54935C30.6249 13.8696 32.6613 17.0196 35.3243 17.0196C37.439 16.9295 39.1621 15.1295 39.5536 12.7894C39.632 12.3394 39.632 11.7994 39.632 11.3495H35.9508L36.0292 9.7295Z" fill="#FFFFFE"/>
<path fill-rule="evenodd" clip-rule="evenodd" d="M51.2254 11.6043L50.129 11.7842C46.5261 12.3242 45.3513 13.0441 45.3513 14.7542C45.4296 16.2844 46.5261 17.3644 47.7793 17.3644C49.5023 17.2743 50.9904 15.8342 51.2254 13.8541V11.6043ZM54.5933 18.6243H51.2254V16.1943C50.4421 17.9044 48.8757 18.8943 47.231 18.8943C45.2729 19.0743 43.5497 17.2743 43.3931 15.0242C43.3931 14.9344 43.3931 14.8443 43.3931 14.7542C43.3931 12.1443 45.3513 10.8841 50.0506 10.3441L51.147 10.2543V8.90426C51.147 7.3741 50.129 6.38417 48.4842 6.38417C46.8394 6.38417 45.9778 7.01402 45.6644 8.81419H43.8631C44.0197 7.73418 44.4896 6.74402 45.1945 6.02409C46.0562 5.21408 47.231 4.854 48.3274 4.854C50.7555 4.854 52.792 6.11417 52.792 9.53411V17.0043H54.4367L54.5933 18.6243Z" fill="#FFFFFE"/>
<path fill-rule="evenodd" clip-rule="evenodd" d="M59.5255 7.565C60.0738 6.66515 61.0921 4.77514 63.2852 4.77514C64.8515 4.77514 65.713 5.67499 66.0264 7.565C66.3397 6.93515 66.6529 6.39515 67.123 5.85515C67.8279 5.13499 68.6894 4.68506 69.6292 4.68506C71.4306 4.68506 72.4488 6.03507 72.4488 8.37524V16.9252H74.0936V18.5452H70.8041V9.09517C70.8041 7.20515 70.2558 6.30507 69.0809 6.30507C67.0446 6.30507 65.948 9.09517 65.948 10.0851V16.9252H67.6711V18.5452H64.225V8.82517C64.225 7.11508 63.6767 6.39515 62.5019 6.39515C60.7005 6.39515 59.3689 9.00509 59.3689 10.2653V17.0153H61.0921V18.6353H56.001V17.0153H57.7242V6.57507H56.001V4.95506H59.4473L59.5255 7.565Z" fill="#FFFFFE"/>
<path fill-rule="evenodd" clip-rule="evenodd" d="M79.1834 12.8702C79.1834 15.1203 80.6716 16.9203 82.5513 17.1004C84.5876 17.1004 85.8408 15.0303 85.8408 11.7002C85.8408 8.37029 84.5094 6.3902 82.5513 6.3902C80.8281 6.3902 79.105 8.55021 79.105 10.5303L79.1834 12.8702ZM75.8939 0H79.1834V7.83029C79.6533 6.84013 80.9847 4.86003 83.0212 4.86003C85.6842 4.86003 87.7205 8.01021 87.7205 11.9702C87.7205 15.6603 85.5275 18.8103 83.0212 18.8103C80.9065 18.8103 79.8883 17.1903 79.1834 16.1103V18.6304H75.8155V17.0104H77.4602V1.62001H75.8939V0Z" fill="#FFFFFE"/>
<path fill-rule="evenodd" clip-rule="evenodd" d="M88.7285 0H92.0964V17.0104H93.6628V18.6304H88.6501V17.0104H90.3732V1.53017H88.7285V0Z" fill="#FFFFFE"/>
<path fill-rule="evenodd" clip-rule="evenodd" d="M103.45 10.7042C103.45 9.44427 103.059 8.27418 102.275 7.28402C101.727 6.74402 101.022 6.38417 100.317 6.47401C98.8291 6.56409 97.5759 7.73418 97.1844 9.35419C97.106 9.80412 96.9494 10.2543 96.9494 10.7042H103.45ZM105.173 14.8443C105.017 15.6543 104.703 16.2844 104.233 16.9142C103.293 18.1744 101.962 18.8943 100.474 18.8943C97.2626 18.8943 94.9913 16.0144 94.9913 11.8743C94.9913 7.9141 97.2626 4.854 100.161 4.854C103.059 4.854 105.408 7.46418 105.408 12.2341H96.871C97.0276 14.2142 97.4193 15.3843 98.2024 16.2844C98.8291 16.9142 99.6122 17.2743 100.395 17.2743C101.727 17.2743 102.589 16.5544 103.215 14.9342L105.173 14.8443Z" fill="#FFFFFE"/>
<path fill-rule="evenodd" clip-rule="evenodd" d="M114.492 4.13039L112.456 12.0505H116.529L114.492 4.13039ZM112.612 0.800293H116.372L120.68 15.7407H121.855V18.6207H118.33L117.312 14.7505H111.829L110.811 18.6207H107.208V15.7407H108.383L112.612 0.800293Z" fill="#FFFFFE"/>
<path fill-rule="evenodd" clip-rule="evenodd" d="M121.7 5.04639H126.4V7.65633H125.225L126.869 15.6665L128.828 5.04639H131.882L133.84 15.4866L135.407 7.65633H134.232V5.04639H138.931V7.65633H137.913L135.407 18.5465H132.274L130.316 9.18649L128.436 18.5465H125.303L122.718 7.65633H121.7V5.04639Z" fill="#FFFFFE"/>
<path fill-rule="evenodd" clip-rule="evenodd" d="M147.233 12.2341C144.492 12.5041 142.691 12.7741 142.691 14.6642C142.691 15.7444 143.474 16.4643 144.648 16.4643C146.058 16.4643 147.233 15.2044 147.311 13.5841V12.2341H147.233ZM150.053 16.0144H151.071V18.6243H147.39V17.0043C146.528 18.2643 145.197 18.8943 143.787 18.8943C141.437 18.8943 139.636 17.0944 139.636 14.6642C139.636 10.7042 143.552 10.2543 147.311 9.8942C147.311 7.82402 146.685 7.19418 145.197 7.19418C143.709 7.19418 143.16 8.00418 143.082 9.26411V9.35419L140.263 9.26411C140.419 6.56409 142.299 4.854 145.118 4.854C148.408 4.854 150.131 6.56409 150.131 9.62419L150.053 16.0144Z" fill="#FFFFFE"/>
<path fill-rule="evenodd" clip-rule="evenodd" d="M156.623 7.2098C157.406 5.49971 158.268 4.77979 159.599 4.77979C160.069 4.77979 160.461 4.86963 160.931 4.95971V8.10989C160.461 8.01981 159.991 7.92973 159.521 7.92973C158.033 7.83988 156.779 9.09982 156.701 10.7198V15.9399H158.111V18.5499H152.628V15.9399H153.803V7.65973H152.628V5.04979H156.623V7.2098Z" fill="#FFFFFE"/>
<path fill-rule="evenodd" clip-rule="evenodd" d="M169.702 10.1752C169.702 8.64524 168.606 7.47516 167.352 7.47516H167.274C165.943 7.47516 164.846 8.64524 164.611 10.0851L169.702 10.1752ZM172.757 14.1351C172.208 17.1054 170.094 18.9053 167.274 18.9053C163.985 18.9053 161.556 15.9353 161.556 11.7952C161.556 7.65508 163.985 4.68506 167.274 4.68506C169.076 4.68506 170.799 5.67499 171.817 7.47516C172.6 9.00509 173.07 10.7152 172.992 12.5151H164.533C164.846 16.0254 166.804 16.2053 167.352 16.2053C168.449 16.2954 169.467 15.3953 169.78 14.2252L172.757 14.1351Z" fill="#FFFFFE"/>
</svg>
