<svg width="73" height="28" viewBox="0 0 73 28" fill="none" xmlns="http://www.w3.org/2000/svg">
<path fill-rule="evenodd" clip-rule="evenodd" d="M9.6887 2.69486L3.5657 5.13973L3.53136 5.56442C3.49703 5.92025 3.51992 5.97764 3.70303 5.93173C3.81748 5.89729 6.58714 4.80686 9.84893 3.49834L15.7888 1.13382L21.8431 3.54425C25.1736 4.86425 27.9547 5.95468 28.0119 5.95468C28.0692 5.95468 28.1149 5.78251 28.1149 5.56442V5.16269L23.1708 3.19991C20.4469 2.10947 17.6772 1.00756 17.0134 0.743564L15.8003 0.25L9.6887 2.69486Z" fill="white"/>
<path fill-rule="evenodd" clip-rule="evenodd" d="M9.83752 3.86583C4.95057 5.82861 3.96631 6.26479 3.96631 6.44844C3.96631 6.5747 4.02353 6.64357 4.11509 6.60913C4.18376 6.5747 6.85041 5.5187 10.0206 4.24462L15.7774 1.92601L21.58 4.24462C24.7616 5.5187 27.4054 6.5747 27.4626 6.60913C27.5084 6.63209 27.5427 6.55174 27.5427 6.43696C27.5427 6.24183 26.6271 5.84009 21.6486 3.84288C18.4097 2.54584 15.7431 1.47836 15.7202 1.48984C15.7087 1.48984 13.0535 2.56879 9.83752 3.86583Z" fill="white"/>
<path fill-rule="evenodd" clip-rule="evenodd" d="M70.1519 1.76495C69.1333 2.20112 69.4423 3.65886 70.5639 3.65886C70.9301 3.65886 71.0675 3.58999 71.3078 3.30303C71.468 3.1079 71.6054 2.85538 71.6054 2.72912C71.6054 2.3159 71.2735 1.84529 70.9072 1.71903C70.7012 1.65016 70.541 1.59277 70.5296 1.59277C70.5181 1.60425 70.3579 1.67312 70.1519 1.76495ZM71.2391 2.13225C71.7427 2.68321 71.3078 3.54407 70.541 3.54407C69.7742 3.54407 69.3622 2.59138 69.923 2.08634C70.4151 1.63869 70.8042 1.65016 71.2391 2.13225Z" fill="white"/>
<path fill-rule="evenodd" clip-rule="evenodd" d="M70.2436 2.59176C70.255 2.95906 70.2894 3.14271 70.3122 2.9935C70.3695 2.68359 70.4839 2.67211 70.7471 2.97054C70.8616 3.0968 71.0104 3.20011 71.0676 3.20011C71.1363 3.20011 71.1019 3.10828 70.9989 2.9935C70.8845 2.86724 70.8502 2.68359 70.8845 2.4655C70.9532 2.12115 70.7929 1.9375 70.4381 1.9375C70.2665 1.9375 70.2321 2.0408 70.2436 2.59176ZM70.6785 2.15559C70.873 2.28185 70.7586 2.62619 70.5183 2.62619C70.4152 2.62619 70.3466 2.52289 70.3466 2.33924C70.3466 2.02933 70.4152 1.99489 70.6785 2.15559Z" fill="white"/>
<path fill-rule="evenodd" clip-rule="evenodd" d="M61.9345 2.28167C61.7514 2.32758 61.3966 2.40793 61.1677 2.44236C60.7214 2.52271 60.5611 2.7408 60.9388 2.7408C61.3852 2.7408 61.4195 2.92445 61.4195 5.62183C61.4195 7.84861 61.3966 8.26183 61.2364 8.41104C61.1448 8.51435 61.0075 8.5947 60.9503 8.5947C60.893 8.5947 60.8473 8.64061 60.8473 8.70948C60.8473 8.77835 61.2707 8.82426 61.8773 8.82426C62.9302 8.82426 63.1362 8.73244 62.6212 8.50287C62.3351 8.37661 62.3351 8.35365 62.3351 6.99922C62.3351 5.89731 62.3694 5.61036 62.5182 5.48409C62.77 5.27749 63.4452 5.30044 63.6741 5.51853C64.0976 5.9547 64.1205 8.41105 63.697 8.53731C63.1935 8.698 63.5482 8.82426 64.5096 8.82426C65.5625 8.82426 65.7685 8.73244 65.2535 8.50287C64.956 8.36513 64.8873 8.07818 64.956 7.2747C64.9674 7.07957 64.9445 6.59748 64.9102 6.19574C64.8415 5.59888 64.7728 5.39227 64.5096 5.12827C64.109 4.73801 63.5025 4.70357 62.873 5.03644C62.6441 5.1627 62.4152 5.26601 62.3809 5.26601C62.3465 5.26601 62.3351 4.56584 62.358 3.71645C62.3809 2.86706 62.3694 2.16688 62.3351 2.17836C62.3008 2.17836 62.1291 2.22427 61.9345 2.28167Z" fill="white"/>
<path fill-rule="evenodd" clip-rule="evenodd" d="M31.6973 2.83261C30.4383 3.28026 29.7287 4.17556 29.6372 5.42669C29.4655 7.55017 30.5757 8.80129 32.7387 8.91608C34.3067 8.99642 34.9018 8.68651 35.1536 7.64199C35.2681 7.20582 35.0506 7.25173 34.7645 7.72234C34.3181 8.44547 33.5742 8.72095 32.6815 8.4799C31.5141 8.16999 30.8389 7.14843 30.8389 5.69069C30.8275 4.61174 31.0106 3.99191 31.4684 3.50983C31.9834 2.95887 32.6357 2.77522 33.4598 2.94739C34.2266 3.10809 34.4784 3.30322 34.6043 3.86565C34.7645 4.55435 34.9476 4.42809 35.0163 3.5787C35.0506 3.154 35.0506 2.77522 35.0277 2.75226C35.0048 2.72931 34.3868 2.68339 33.6429 2.66044C32.5327 2.626 32.1894 2.66044 31.6973 2.83261Z" fill="white"/>
<path fill-rule="evenodd" clip-rule="evenodd" d="M54.4611 3.07366C54.3695 3.13105 54.3238 3.3147 54.3467 3.49835C54.3695 3.77383 54.4382 3.83122 54.7472 3.86565C55.1592 3.91157 55.4225 3.59018 55.2966 3.19992C55.2165 2.95887 54.7472 2.89 54.4611 3.07366Z" fill="white"/>
<path fill-rule="evenodd" clip-rule="evenodd" d="M66.833 3.79704C66.5125 3.99217 66.4553 4.09547 66.4553 4.4513C66.4553 4.80713 66.398 4.91043 66.1463 5.03669L65.8258 5.18591L66.1463 5.31217L66.4553 5.42695V6.8273C66.4553 8.13581 66.4782 8.26208 66.7185 8.54903C66.9474 8.81303 67.0847 8.85894 67.5311 8.85894C67.966 8.85894 68.1377 8.80155 68.3666 8.56051L68.6756 8.26208L68.1834 8.28503C67.4624 8.30799 67.3709 8.12434 67.3709 6.62069V5.38104H67.9431C68.4352 5.38104 68.5153 5.3466 68.5153 5.16295C68.5153 4.96782 68.4238 4.93339 67.9774 4.89895L67.4281 4.86452V4.19878C67.4281 3.83147 67.3823 3.54452 67.3136 3.556C67.2564 3.556 67.0275 3.67078 66.833 3.79704Z" fill="white"/>
<path fill-rule="evenodd" clip-rule="evenodd" d="M41.5399 4.95584C40.8646 5.17392 40.6014 5.38053 40.9791 5.38053C41.0706 5.38053 41.2309 5.46088 41.3224 5.56418C41.4827 5.7134 41.5055 6.10366 41.5055 8.02053C41.5055 9.27165 41.4598 10.431 41.4025 10.5802C41.3453 10.7409 41.1622 10.8901 41.002 10.936C40.5213 11.0508 40.6357 11.2803 41.1393 11.1885C41.3682 11.1541 41.9633 11.1197 42.4555 11.1197C43.3939 11.1197 43.6114 10.9819 42.9133 10.8097L42.4784 10.7064L42.444 9.76522C42.4211 8.96174 42.4326 8.83548 42.5814 8.89287C42.8904 9.00766 43.8861 8.70922 44.3782 8.34192C45.8088 7.30888 45.454 4.80662 43.8746 4.80662C43.5885 4.80662 43.2223 4.9214 42.9133 5.09358L42.4211 5.39201V5.03618C42.4211 4.63445 42.4669 4.64593 41.5399 4.95584ZM43.909 5.70192C44.4698 6.27583 44.5041 7.59583 43.9662 8.18122C43.6228 8.56 42.9819 8.58296 42.65 8.25009C42.4555 8.05496 42.4211 7.87131 42.4211 6.81531C42.4211 5.48384 42.4784 5.39201 43.1994 5.38053C43.4741 5.38053 43.6801 5.47236 43.909 5.70192Z" fill="white"/>
<path fill-rule="evenodd" clip-rule="evenodd" d="M37.1564 5.07108C36.4354 5.44986 36.092 6.13856 36.1607 7.0109C36.2637 8.22759 36.9161 8.8589 38.0606 8.87038C39.3309 8.88185 40.2465 7.99803 40.2465 6.75838C40.2465 6.04673 39.846 5.28917 39.3309 5.01369C38.7587 4.71525 37.7859 4.73821 37.1564 5.07108ZM38.6328 5.33508C39.0448 5.67943 39.2165 6.2189 39.2165 7.13716C39.2165 8.27351 38.6671 8.8589 37.969 8.46864C37.4311 8.1702 37.2136 7.60777 37.2136 6.55177C37.2136 5.64499 37.2251 5.57612 37.5341 5.31212C37.9461 4.9563 38.1979 4.96778 38.6328 5.33508Z" fill="white"/>
<path fill-rule="evenodd" clip-rule="evenodd" d="M51.0848 4.97919C50.3866 5.17432 50.3294 5.23171 50.6384 5.44979C50.8788 5.61049 50.8902 5.71379 50.8902 6.99936C50.8902 8.35379 50.8902 8.37675 50.6041 8.50301C50.0776 8.74405 50.3065 8.8244 51.451 8.8244C52.5841 8.8244 53.0419 8.68666 52.378 8.53744C52.1835 8.49153 51.9775 8.36527 51.9203 8.25048C51.7486 7.94057 51.7715 6.03519 51.9546 5.8171C52.172 5.54162 52.4353 5.49571 52.7901 5.67936C53.1792 5.88597 53.4081 5.72527 53.4424 5.19727C53.4653 4.89884 53.431 4.8644 53.0991 4.82997C52.8358 4.80701 52.6413 4.88736 52.3437 5.13988C52.1263 5.33501 51.9203 5.49571 51.8745 5.49571C51.8401 5.49571 51.8058 5.33501 51.8058 5.15136C51.8058 4.95623 51.7715 4.80701 51.7257 4.81849C51.6685 4.81849 51.3823 4.89884 51.0848 4.97919Z" fill="white"/>
<path fill-rule="evenodd" clip-rule="evenodd" d="M54.4954 4.94436C54.1864 5.01323 53.9117 5.0821 53.8888 5.09357C53.8659 5.11653 53.9804 5.25427 54.1406 5.41497C54.4153 5.69044 54.4382 5.78227 54.4382 6.83827C54.4382 8.21565 54.3695 8.46818 54.0262 8.54852C53.431 8.69774 53.8087 8.824 54.8388 8.824C55.9375 8.824 56.1549 8.73218 55.6399 8.50261L55.3538 8.36487V6.58575C55.3538 5.23131 55.3194 4.80662 55.2164 4.8181C55.1363 4.82957 54.8159 4.88697 54.4954 4.94436Z" fill="white"/>
<path fill-rule="evenodd" clip-rule="evenodd" d="M57.5283 4.93306C56.3952 5.40367 56.1663 6.89584 57.1391 7.46975C57.3566 7.59601 57.5283 7.71079 57.5283 7.73375C57.5283 7.75671 57.3452 7.88297 57.1277 8.02071C56.647 8.31914 56.6241 8.51427 57.0361 8.89305C57.1964 9.04227 57.3108 9.18001 57.2879 9.20296C56.5555 9.70801 56.3838 9.90314 56.3838 10.1786C56.3838 10.8788 57.0476 11.3494 58.0433 11.3494C59.1649 11.3494 60.1606 10.7066 60.3895 9.84575C60.6298 8.95044 60.2064 8.53723 58.8444 8.36505C57.8602 8.23879 57.5626 8.08957 57.7686 7.83705C57.8373 7.74523 58.0547 7.67636 58.2379 7.67636C58.7185 7.67636 59.4396 7.26314 59.6456 6.87288C59.7371 6.68923 59.8172 6.31045 59.8172 6.01201C59.8172 5.54141 59.8401 5.49549 60.1034 5.49549C60.3094 5.49549 60.4238 5.41515 60.5039 5.19706C60.6527 4.8068 60.6527 4.74941 60.4467 4.92158C60.3437 5.01341 60.0919 5.03636 59.7371 4.99045C58.5011 4.82976 57.803 4.81828 57.5283 4.93306ZM58.6499 5.32332C59.3366 6.19567 58.8215 7.77966 57.9861 7.33201C57.3337 6.98766 57.2078 5.51845 57.803 5.12819C58.0547 4.95602 58.4324 5.04784 58.6499 5.32332ZM59.4281 9.45549C59.7944 9.69653 59.8058 10.2934 59.451 10.6263C58.9245 11.1198 57.8258 11.0624 57.3566 10.5344C57.0476 10.213 57.0819 9.63914 57.4253 9.36366C57.6542 9.18001 57.8144 9.15705 58.4324 9.21444C58.833 9.24888 59.2793 9.35218 59.4281 9.45549Z" fill="white"/>
<path fill-rule="evenodd" clip-rule="evenodd" d="M45.6829 5.03666C45.7172 5.09405 45.8202 5.15144 45.9118 5.15144C46.1865 5.15144 46.5069 5.69092 47.1135 7.229C47.8117 8.95074 47.8117 8.88187 46.8388 10.133C46.5527 10.5118 46.3124 10.8446 46.3124 10.8906C46.3124 10.9365 46.4383 11.0283 46.587 11.0972C46.7931 11.189 46.8961 11.189 46.9762 11.0857C47.2051 10.8102 48.6586 7.82587 49.1736 6.58622C49.5284 5.72535 49.7802 5.28918 49.9518 5.19735C50.4325 4.95631 50.3524 4.92188 49.4254 4.92188C48.9104 4.92188 48.4869 4.96779 48.4869 5.02518C48.4869 5.08257 48.6013 5.15144 48.7501 5.1744C48.9676 5.20883 49.0019 5.2777 48.9905 5.66796C48.979 6.19596 48.4869 7.51596 48.3152 7.47004C48.1893 7.43561 47.4683 5.65648 47.4569 5.34657C47.4569 5.24327 47.537 5.15144 47.6285 5.15144C47.7201 5.15144 47.8002 5.09405 47.8002 5.03666C47.8002 4.96779 47.3539 4.92188 46.7015 4.92188C46.0034 4.92188 45.6371 4.96779 45.6829 5.03666Z" fill="white"/>
<path fill-rule="evenodd" clip-rule="evenodd" d="M19.5656 7.19442C19.4741 7.56173 19.5771 7.6306 20.4354 7.77981C21.248 7.91755 21.5456 8.11268 21.6486 8.60625L21.7287 8.93912H23.2051C24.6128 8.93912 24.6815 8.92764 24.6815 8.70955C24.6815 8.29633 25.1736 7.92903 25.929 7.77981C26.444 7.68799 26.6385 7.59616 26.6958 7.42399C26.7301 7.29773 26.7187 7.14851 26.6614 7.1026C26.6157 7.05668 25.0134 6.98782 23.1021 6.96486L19.6343 6.91895L19.5656 7.19442Z" fill="white"/>
<path fill-rule="evenodd" clip-rule="evenodd" d="M4.58426 7.15997C4.45837 7.49284 4.64149 7.66501 5.19084 7.73388C6.23232 7.87162 6.49555 8.00936 6.70156 8.49144L6.88468 8.93909H8.34962C9.79168 8.93909 9.80312 8.93909 9.80312 8.67509C9.80312 8.21596 10.0778 7.99788 10.9018 7.79127C11.6114 7.60762 11.6915 7.56171 11.7259 7.28623L11.7602 6.98779H8.20084C5.14506 6.98779 4.64149 7.01075 4.58426 7.15997Z" fill="white"/>
<path fill-rule="evenodd" clip-rule="evenodd" d="M6.71313 15.0227V20.5323H7.11371H7.51428V15.0227V9.51318H7.11371H6.71313V15.0227Z" fill="white"/>
<path fill-rule="evenodd" clip-rule="evenodd" d="M7.85754 15.0227V20.5323H8.20089H8.54424V15.0227V9.51318H8.20089H7.85754V15.0227Z" fill="white"/>
<path fill-rule="evenodd" clip-rule="evenodd" d="M9.00208 15.0227V20.5323H9.34542H9.68877V15.0227V9.51318H9.34542H9.00208V15.0227Z" fill="white"/>
<path fill-rule="evenodd" clip-rule="evenodd" d="M21.5914 15.0227V20.5323H21.992H22.3926V15.0227V9.51318H21.992H21.5914V15.0227Z" fill="white"/>
<path fill-rule="evenodd" clip-rule="evenodd" d="M22.7358 15.0227V20.5323H23.0792H23.4225V15.0227V9.51318H23.0792H22.7358V15.0227Z" fill="white"/>
<path fill-rule="evenodd" clip-rule="evenodd" d="M23.8804 15.0227V20.5323H24.2237H24.5671V15.0227V9.51318H24.2237H23.8804V15.0227Z" fill="white"/>
<path fill-rule="evenodd" clip-rule="evenodd" d="M31.5255 12.3824C30.1521 12.6234 28.8932 13.3007 28.0692 14.2189C27.8288 14.4829 27.4741 15.0454 27.2795 15.47C26.9705 16.1243 26.9133 16.3768 26.8789 17.3869C26.8217 18.7873 26.9819 19.5907 27.4969 20.6467C28.1836 22.0241 29.4883 22.9194 31.1936 23.1834C33.5971 23.5507 36.2065 22.3111 37.1907 20.3368C37.6943 19.3153 37.9232 17.9034 37.7515 16.7441C37.351 14.0353 35.6686 12.4972 32.9447 12.3365C32.464 12.3021 31.8231 12.325 31.5255 12.3824ZM33.0019 13.5417C33.929 13.9894 34.5126 15.0109 34.8102 16.7097C35.2337 19.1546 34.7644 21.4846 33.7229 22.0356C32.8531 22.5062 31.537 22.1848 30.8846 21.3584C30.0263 20.268 29.6829 19.0398 29.6829 17.0311C29.6715 15.0798 30.0263 14.0582 30.8961 13.5302C31.3996 13.2203 32.3496 13.2203 33.0019 13.5417Z" fill="white"/>
<path fill-rule="evenodd" clip-rule="evenodd" d="M54.4381 12.3938C52.6299 12.6923 51.5312 13.886 51.5312 15.5389C51.5312 16.9736 52.2522 17.8345 54.3695 18.9249C56.1205 19.8432 56.4982 20.2105 56.4982 21.0484C56.4982 21.8519 55.8916 22.3684 54.9303 22.3684C53.5454 22.3684 52.6184 21.519 52.0004 19.694C51.9432 19.5448 51.8516 19.5103 51.6113 19.5677C51.4281 19.6136 51.2679 19.671 51.245 19.694C51.1649 19.7514 51.451 22.2077 51.5655 22.5291C51.7143 22.8964 52.3552 23.0571 54.049 23.1375C55.2736 23.1948 55.5368 23.1719 56.2235 22.9538C57.677 22.5061 58.5812 21.5879 58.8101 20.3253C59.0962 18.7757 58.3752 17.8001 56.1549 16.7096C54.0261 15.6651 53.3852 14.9305 53.7858 13.9663C53.9918 13.4843 54.358 13.1973 54.9303 13.1055C56.0519 12.9333 56.9102 13.5302 57.2536 14.7354C57.4481 15.4126 57.4939 15.4815 57.78 15.4815C58.0776 15.4815 58.0776 15.4585 58.1577 14.5862C58.1921 14.1041 58.2722 13.4613 58.318 13.1629C58.4095 12.6119 58.4095 12.6119 58.0547 12.5545C56.3494 12.2561 55.5025 12.2216 54.4381 12.3938Z" fill="white"/>
<path fill-rule="evenodd" clip-rule="evenodd" d="M64.3952 12.3369C62.7128 12.6582 61.3508 13.565 60.6184 14.8506C59.7028 16.4461 59.6799 19.0057 60.5726 20.8422C61.3966 22.564 63.3422 23.5167 65.3565 23.1838C66.9588 22.9198 68.996 21.6457 69.1562 20.8078C69.1906 20.5897 69.202 20.3716 69.1562 20.3372C69.1219 20.3028 68.893 20.4061 68.6527 20.5668C67.5883 21.2669 65.9631 21.4735 64.7385 21.0603C63.5254 20.6356 62.3809 19.0516 62.4724 17.9038L62.5068 17.4906L63.3651 17.4676C65.7228 17.3988 68.9044 17.0544 69.1791 16.8363C69.3622 16.6756 69.3508 16.4116 69.1562 16.1821C69.0761 16.0788 68.9388 15.7344 68.8701 15.4245C68.5496 14.116 67.6798 12.9911 66.6498 12.5549C66.2149 12.3713 64.8758 12.245 64.3952 12.3369ZM65.3565 13.565C65.574 13.7372 65.8601 14.093 65.986 14.3685C66.3065 15.0457 66.5354 16.1362 66.3866 16.2854C66.3179 16.3542 65.4481 16.4116 64.3952 16.4231L62.5068 16.4575L62.5297 15.7229C62.5525 14.8047 63.0103 13.829 63.594 13.4388C64.109 13.0944 64.7957 13.1403 65.3565 13.565Z" fill="white"/>
<path fill-rule="evenodd" clip-rule="evenodd" d="M40.8187 12.6353C40.2808 12.6927 39.4568 12.773 38.9875 12.819C38.1292 12.8993 38.1292 12.8993 38.1292 13.2322C38.1292 13.5421 38.1749 13.5765 38.7357 13.7028C39.0676 13.7831 39.3766 13.875 39.411 13.9209C39.5712 14.0701 39.6628 15.677 39.6628 18.2596C39.6742 21.2784 39.7887 21.7949 40.5898 22.5295C41.1506 23.0346 41.7915 23.2068 42.8215 23.1494C43.7142 23.092 44.4696 22.7591 45.4768 22.013C45.8087 21.772 46.0948 21.5654 46.1177 21.5654C46.1406 21.5654 46.1978 21.8982 46.2436 22.3115C46.358 23.4593 46.2779 23.4134 47.5483 23.0575C49.7457 22.4377 50.295 22.2311 50.3637 21.9786C50.501 21.485 50.4553 21.4506 49.8144 21.4506C48.7729 21.4506 48.8301 21.7146 48.8301 16.7789V12.4746L48.441 12.5435C48.0061 12.6238 45.3623 12.8304 44.6756 12.8419C44.2522 12.8419 44.2407 12.8534 44.275 13.2092C44.3094 13.5765 44.3208 13.588 45.0991 13.7143C45.6255 13.7946 45.946 13.9094 46.049 14.0586C46.1634 14.2193 46.1978 14.9654 46.1978 17.3988V20.5438L45.9002 20.8193C45.5454 21.1522 44.7099 21.4506 44.1377 21.4506C43.4968 21.4506 42.7414 21.0144 42.4782 20.4749C42.2607 20.0388 42.2493 19.7862 42.2493 16.2509C42.2493 12.5664 42.2493 12.4976 42.0204 12.509C41.8945 12.5205 41.3566 12.5779 40.8187 12.6353Z" fill="white"/>
<path fill-rule="evenodd" clip-rule="evenodd" d="M15.56 14.1844L10.261 14.2188V14.8501V15.4814H15.6973H21.1336V14.7927C21.1336 14.2991 21.0878 14.1155 20.9963 14.127C20.9162 14.1499 18.467 14.1729 15.56 14.1844Z" fill="white"/>
<path fill-rule="evenodd" clip-rule="evenodd" d="M6.61016 21.4388C6.44993 21.8176 6.1867 21.9553 5.22533 22.162C4.55009 22.2997 4.5272 22.3112 4.56153 22.6326L4.59587 22.954H8.25822C11.8862 22.954 11.9091 22.954 12.0007 22.7129C12.138 22.3571 12.0694 22.2997 11.2682 22.139C10.3412 21.9668 9.94062 21.7487 9.84906 21.3929L9.78039 21.106H8.25822H6.73606L6.61016 21.4388Z" fill="white"/>
<path fill-rule="evenodd" clip-rule="evenodd" d="M21.5456 21.4962C21.3739 21.9094 21.2251 21.9783 20.0463 22.2193C19.6457 22.3112 19.5885 22.3571 19.5885 22.644V22.954L23.2509 22.9654H26.9132L26.9475 22.6096C26.9704 22.4145 26.9475 22.2538 26.8903 22.2538C26.5241 22.2538 25.3109 21.9898 25.1393 21.875C25.0134 21.8061 24.8531 21.5995 24.7845 21.4273L24.6586 21.106H23.1822H21.7058L21.5456 21.4962Z" fill="white"/>
<path fill-rule="evenodd" clip-rule="evenodd" d="M3.68017 24.4347L3.34827 24.779H36.6986H70.049L69.717 24.4347L69.3851 24.0903H36.6986H4.01207L3.68017 24.4347Z" fill="white"/>
<path fill-rule="evenodd" clip-rule="evenodd" d="M2.30675 25.8121L1.97485 26.1565H36.6414H71.3079L70.976 25.8121L70.6441 25.4678H36.6414H2.63866L2.30675 25.8121Z" fill="white"/>
<path fill-rule="evenodd" clip-rule="evenodd" d="M0.95635 27.1666C0.784677 27.3388 0.647339 27.5224 0.647339 27.5683C0.647339 27.6143 16.8189 27.6487 36.5842 27.6487C56.3495 27.6487 72.5211 27.6028 72.5211 27.5569C72.5211 27.4995 72.3723 27.3273 72.2006 27.1551L71.8802 26.8452H36.5728H1.26536L0.95635 27.1666Z" fill="white"/>
</svg>
