<svg width="70" height="23" viewBox="0 0 70 23" fill="none" xmlns="http://www.w3.org/2000/svg">
<path fill-rule="evenodd" clip-rule="evenodd" d="M6.94128 0.0202771C4.939 0.146648 3.48401 1.23743 2.37608 3.43893C2.11579 3.96437 1.89553 4.51641 1.83547 4.90217C1.83547 4.90217 1.66861 5.62049 1.66861 5.63379C1.66861 5.65374 2.08241 5.66705 2.59633 5.66705H3.51738L3.60415 5.24803C3.77101 4.42329 4.37169 3.2527 5.07249 2.57429C5.33278 2.3149 5.8734 2.06881 6.50078 1.88258C7.21493 1.66309 7.58201 1.69635 8.57648 2.05551C8.99029 2.20183 9.38296 2.50778 9.64436 2.77382C9.95806 3.09307 10.0915 3.2128 10.2918 3.61186C10.492 4.01093 10.7923 4.75585 10.9458 5.21477L11.0927 5.66705H11.987C12.4809 5.66705 12.8814 5.64709 12.8814 5.61384C12.8747 5.32119 12.2874 3.60521 12.0004 3.05317C11.4731 2.02225 10.2784 0.83836 9.34402 0.439295C8.42965 0.0402305 7.92908 -0.0462337 6.94128 0.0202771Z" fill="white"/>
<path fill-rule="evenodd" clip-rule="evenodd" d="M48.2552 5.43442C47.9081 5.48098 47.4743 5.55414 47.2874 5.6007C46.8603 5.70712 45.3986 6.35892 45.1116 6.57176C44.9915 6.65822 44.8647 6.73138 44.838 6.73138C44.7245 6.73138 43.7968 7.53617 43.2829 8.08155C42.6822 8.71341 42.5487 8.87968 42.255 9.38517C41.4074 10.8151 41.2138 11.3938 40.9802 13.3027C40.9135 13.8414 40.9202 14.0343 41.047 14.9322C41.2739 16.5284 41.4074 16.9408 42.1282 18.1978C42.5754 18.976 42.7489 19.1955 43.5231 19.967C44.551 20.998 45.472 21.5633 46.8002 21.9823C48.9493 22.6674 50.431 22.6408 52.6202 21.8958C53.4011 21.6298 53.7014 21.4702 54.4289 20.9647C55.8639 19.9537 57.0519 18.4705 57.5858 17.0007C58.0464 15.7303 58.2399 14.3868 58.1331 13.2029C57.8928 10.6356 56.7449 8.58038 54.6625 6.97747C54.3088 6.69813 53.1141 6.05962 52.5134 5.82684C51.3921 5.38787 49.7502 5.23489 48.2552 5.43442ZM50.7981 7.03068C51.619 7.18366 52.3131 7.4231 52.8137 7.72905C53.0607 7.87537 53.2742 7.99509 53.2876 7.99509C53.361 7.99509 54.1753 8.60034 54.3955 8.81317C54.9695 9.37186 55.5034 10.0835 55.8038 10.6954C56.7782 12.6974 56.845 14.4932 56.024 16.5949C55.7504 17.3 55.5969 17.5394 54.9829 18.2976C54.3154 19.1157 53.6547 19.6345 52.6802 20.1134C51.5056 20.6787 50.8181 20.845 49.59 20.845C48.8292 20.8516 48.5021 20.8184 48.0416 20.712C47.3275 20.539 45.9459 19.9205 45.4653 19.5547C45.0449 19.2421 44.1705 18.3841 44.0037 18.1247C43.9369 18.0183 43.7834 17.8054 43.6566 17.6392C42.4686 16.0762 42.2417 12.9701 43.1761 10.9548C43.3963 10.4892 43.9837 9.61795 44.3574 9.20559C45.0182 8.46732 46.4665 7.53617 47.3542 7.27012C48.4688 6.93092 49.7702 6.84445 50.7981 7.03068Z" fill="white"/>
<path fill-rule="evenodd" clip-rule="evenodd" d="M48.5888 8.69348C47.4875 8.91745 46.7467 9.46501 46.2194 9.99045C45.6921 10.5159 45.365 10.9615 45.1582 11.5734C44.9513 12.1853 44.7644 12.9635 44.7644 14.0343C44.7644 14.6295 44.9056 15.1831 45.0514 15.7436C45.3184 16.5418 45.6187 17.0738 46.0992 17.6126C46.2527 17.8387 46.9001 18.291 47.4875 18.5836C47.9547 18.8164 49.156 19.1024 49.6633 19.1024C51.3919 19.0958 52.8669 18.3775 53.7012 17.1204C53.9415 16.7679 54.362 15.7237 54.3019 15.6572C54.2485 15.604 52.2529 15.1118 52.0927 15.1118C51.9859 15.1118 51.9392 15.1783 51.8791 15.3911C51.8324 15.5507 51.6455 15.9365 51.452 16.2491C50.9581 17.0738 50.4709 17.3731 49.6566 17.3731C49.1494 17.3731 48.9158 17.2933 48.4552 16.9608C47.7211 16.4287 47.3607 15.6239 47.354 13.9811C47.3473 13.1031 47.479 12.7506 47.5809 12.3848C47.8219 11.5202 48.3218 10.8977 48.7556 10.6955C49.4831 10.3563 50.0571 10.3496 50.8046 10.6689C51.1517 10.8152 51.5388 11.3007 51.8324 11.9592C51.9859 12.305 52.0126 12.3316 52.1795 12.2917C52.2796 12.2718 52.7068 12.2119 53.1272 12.152C54.1818 12.0057 54.1951 11.9991 54.1951 11.866C54.1951 11.7397 53.8214 10.9282 53.6612 10.6223C53.2607 9.99045 52.8069 9.67784 52.4932 9.45835C52.1261 9.20151 51.3586 8.87723 50.591 8.75334C49.6433 8.60037 48.9158 8.62697 48.5888 8.69348Z" fill="white"/>
<path fill-rule="evenodd" clip-rule="evenodd" d="M0.680866 7.03056C0.554055 7.08376 0.400546 7.19683 0.327129 7.27665C-0.0132588 7.66241 9.01145e-05 7.38306 9.01145e-05 14.5064C9.01145e-05 21.8292 -0.0199209 21.5432 0.400558 21.796C0.84106 22.0487 1.06797 21.9888 7.14156 22.0154C12.481 22.0354 13.5155 22.0287 13.5155 22.0287C13.8092 21.9689 14.3164 22.0154 14.4833 21.7228C14.6835 21.2639 14.6167 21.776 14.6167 14.4465L14.5834 7.72892L14.5166 7.39637C14.1496 6.88423 14.4032 6.93079 7.24835 6.93079C1.86221 6.93744 0.867745 6.95074 0.680866 7.03056ZM8.28954 11.1742C8.95029 11.6265 9.21059 12.092 9.21059 12.8236C9.21059 13.3358 8.99034 13.7947 8.57653 14.1605C8.33626 14.3733 8.26951 14.4731 8.30956 14.5596C8.36295 14.6793 8.8168 16.2623 9.0771 17.22C9.30403 18.0514 9.49758 17.9716 7.31509 17.9716C6.26723 17.9716 5.39958 17.945 5.37955 17.9184C5.35953 17.8851 5.45297 17.506 5.57978 17.067C5.81338 16.2556 5.98691 15.5772 6.04031 15.1981C6.06033 15.085 6.10705 14.9054 6.14042 14.8123C6.25388 14.513 6.21384 14.3733 5.93352 14.1007C5.03917 13.2294 5.2127 11.8991 6.32063 11.1542C6.94133 10.7419 7.66883 10.7485 8.28954 11.1742Z" fill="white"/>
<path fill-rule="evenodd" clip-rule="evenodd" d="M16.1385 13.7411L16.1185 19.1019H19.1019C22.6726 19.1019 22.993 19.062 23.9007 18.5233C24.4546 18.1974 25.0219 17.652 25.3423 17.1531C25.7294 16.5412 26.0965 14.9317 26.0898 13.8875C26.0898 13.3354 25.8562 11.9054 25.6694 11.2603C25.4958 10.6683 25.3223 10.3823 24.7884 9.8037C24.1943 9.15855 23.8539 8.96567 22.7794 8.64641L22.0586 8.43358L19.1085 8.40698L16.1518 8.38037L16.1385 13.7411ZM20.9506 10.8213C21.885 10.941 22.5191 11.6194 22.6993 12.6703C22.7927 13.2357 22.7393 15.1046 22.6192 15.4771C22.4924 15.8628 22.2655 16.2087 21.9985 16.4082C21.6114 16.7009 21.2176 16.7873 20.2966 16.7807C19.8427 16.7807 19.4556 16.7674 19.4423 16.7541C19.4289 16.7341 19.4089 15.4039 19.4022 13.7877L19.3889 10.8546L19.7226 10.8479C19.9095 10.8479 20.1164 10.8213 20.1898 10.7881C20.2632 10.7615 20.3967 10.7482 20.4901 10.7615C20.5836 10.7748 20.7905 10.8014 20.9506 10.8213Z" fill="white"/>
<path fill-rule="evenodd" clip-rule="evenodd" d="M27.4314 13.7482V19.1023H28.8664H30.3014L30.3147 15.1316L30.3348 11.1609L30.5216 11.8526C30.882 13.2028 31.4227 15.3511 31.5361 15.8765C31.6029 16.1692 31.7964 16.9473 31.9766 17.5991C32.1568 18.2509 32.3037 18.8628 32.3037 18.9493V19.1023H33.5251H34.7398L35.0935 17.7854C35.2871 17.0671 35.4873 16.2357 35.5474 15.943C35.6074 15.6504 35.8077 14.8589 35.9879 14.1805C36.5418 12.1253 36.6419 11.7129 36.6419 11.4668C36.6419 11.274 36.662 11.2407 36.7287 11.3072C36.7888 11.3737 36.8155 12.2916 36.8422 15.2646C36.8622 17.393 36.8956 19.1289 36.9289 19.1156C36.9556 19.1089 37.5763 19.1023 38.3105 19.1023H39.6454V13.7482V8.39404L37.4696 8.40734L35.2871 8.4273L35.1669 8.92613C35.1002 9.19882 34.9867 9.6777 34.9133 9.9903C34.8399 10.3029 34.5863 11.2407 34.346 12.0854C34.1124 12.9234 33.8654 13.8546 33.7987 14.1472C33.7386 14.4399 33.6585 14.7059 33.6252 14.7458C33.5184 14.8589 33.4049 14.6195 33.2781 14.0342C33.1646 13.5087 32.1301 9.57128 31.9299 8.91283C31.8765 8.7399 31.8365 8.55367 31.8365 8.50046C31.8365 8.40735 31.5828 8.39404 29.634 8.39404H27.4314V13.7482Z" fill="white"/>
<path fill-rule="evenodd" clip-rule="evenodd" d="M62.1043 8.62683C62.0509 8.7532 62.0042 8.89952 62.0042 8.95273C62.0042 9.00594 61.864 9.38505 61.6971 9.80407C61.5303 10.2164 61.2566 10.8815 61.0965 11.274C60.9363 11.673 60.8028 12.0455 60.8028 12.0987C60.8028 12.1519 60.5759 12.7439 60.3022 13.4156C60.0286 14.094 59.7015 14.952 59.5681 15.3245C59.4412 15.7036 59.201 16.3354 59.0274 16.7412C58.8606 17.1402 58.6203 17.7854 58.4935 18.1711C58.3667 18.5502 58.2332 18.8961 58.1998 18.9294C58.1598 18.9693 58.1331 19.0225 58.1331 19.0491C58.1331 19.0757 58.914 19.1023 59.8684 19.1023H61.6037V18.956C61.6037 18.7897 61.9908 17.6523 62.0909 17.5193C62.1377 17.4595 62.6048 17.4395 64.0198 17.4395C65.7284 17.4395 65.8819 17.4462 65.9153 17.5526C65.942 17.6191 65.9954 17.7588 66.0421 17.8718C66.0821 17.9783 66.2023 18.3042 66.3091 18.5835L66.4893 19.1023H68.2446H69.9999L69.4326 17.7189C69.1256 16.9606 68.7519 16.0095 68.6184 15.6105C68.4782 15.2048 68.2046 14.5064 68.0177 14.0475C67.8241 13.5885 67.5772 12.9434 67.4637 12.6175C67.3503 12.2849 67.11 11.6597 66.9231 11.2208C66.7429 10.7818 66.4359 9.97035 66.249 9.42496L65.9019 8.4273L64.0532 8.40734L62.1977 8.39404L62.1043 8.62683ZM64.2667 11.806C64.3535 12.0654 64.4937 12.551 64.5804 12.8835C64.6605 13.2094 64.8541 13.828 65.0009 14.247C65.1411 14.666 65.2479 15.0318 65.2345 15.0584C65.2145 15.0917 64.6605 15.1116 63.9998 15.1116C62.8918 15.1116 62.8051 15.105 62.8051 14.9919C62.8051 14.9254 62.9986 14.2936 63.2389 13.5952C63.4792 12.8902 63.6727 12.265 63.6727 12.2118C63.6727 12.1519 63.7128 12.0122 63.7662 11.8992C63.8196 11.7794 63.8796 11.6065 63.8997 11.5001C63.9731 11.1941 64.0999 11.3006 64.2667 11.806Z" fill="white"/>
</svg>
